<svg width="375.47760606163786" height="113.66796479058883" viewBox="0 -7.29 375.47760606163786 113.66796479058883" class="css-1j8o68f"><defs id="SvgjsDefs4715"><linearGradient id="SvgjsLinearGradient4722"><stop id="SvgjsStop4723" stop-color="#ef4136" offset="0"></stop><stop id="SvgjsStop4724" stop-color="#fbb040" offset="1"></stop></linearGradient></defs><g id="SvgjsG4716" featurekey="nYIUkx-0" transform="matrix(1.1819588680435795,0,0,1.1819588680435795,-9.336746432997938,-13.201461006884566)" fill="url(#SvgjsLinearGradient4722)"><path xmlns="http://www.w3.org/2000/svg" d="M84.5853577,18.0820312c-0.2271729-0.2255249-0.4630737-0.4419556-0.6949463-0.6625977  c-0.456543-0.432251-0.9179688-0.8587646-1.3914185-1.2709961c-0.1588745-0.1390991-0.3179321-0.2779541-0.4787598-0.414856  c-6.5284424-5.5255737-14.5581665-9.1533203-23.1134644-10.3206787c-0.114502-0.0153198-0.2294312-0.0294189-0.3442383-0.0438843  c-0.7716675-0.0991821-1.5484009-0.1734619-2.3276367-0.2322388c-0.1998901-0.0147705-0.3986206-0.0336304-0.5992432-0.0457153  c-0.9078369-0.0560913-1.8192139-0.0909424-2.7346802-0.0910034C52.9003601,5.000061,52.8997498,5,52.8991394,5  C28.0862122,5.0001221,7.8993835,25.1870728,7.8993835,50c0,24.8134155,20.1868286,44.9998779,44.9997559,45  c0.0006104,0,0.0012207-0.000061,0.0018311-0.000061c0.9152832-0.000061,1.8264771-0.0348511,2.7341919-0.0909424  c0.2000122-0.012085,0.3981934-0.0309448,0.5975342-0.0455933c0.7799683-0.0587769,1.557251-0.1330566,2.3297119-0.2324219  c0.1135254-0.0143433,0.2272339-0.0281982,0.3405151-0.043396c8.5605469-1.1676025,16.5961914-4.7987671,23.1279297-10.3302612  c0.147522-0.1256104,0.293335-0.2531128,0.439209-0.3805542c0.489502-0.425415,0.9663696-0.8658447,1.4378662-1.3126831  c0.22052-0.210083,0.4450073-0.4160156,0.6612549-0.6304932c0.4264526-0.4208374,0.8379517-0.8577271,1.2481079-1.2961426  c0.475769-0.5107422,0.9389038-1.0328979,1.3908081-1.5653076c0.178894-0.210083,0.3592529-0.4187012,0.5344849-0.6323853  c0.3652954-0.4467163,0.7220459-0.9006348,1.0703125-1.3613892c0.1177368-0.1554565,0.2321167-0.3137817,0.3479004-0.4709473  c1.0687866-1.4526367,2.0484619-2.9733887,2.9396973-4.5512085L53.8988953,50l38.2017212-22.0558472  c-0.8926392-1.5802612-1.8739624-3.1035156-2.9447021-4.5582886c-0.1118164-0.1516113-0.2220459-0.3045654-0.3355713-0.4546509  c-0.3515625-0.4653931-0.7120361-0.9237061-1.0809937-1.3748169c-0.1665649-0.203064-0.3378296-0.4013062-0.5076904-0.6011353   M53.3988953,11.5279541c13.2709351,0.2911377,25.5697632,7.4741211,32.3369751,18.9360352L53.3988953,49.1339722V11.5279541z   M52.3988953,49.1339111l-32.8273315-18.953064c6.7168579-11.1397095,18.9116821-18.6174316,32.8273315-18.6766357V49.1339111z   M19.0726013,31.0476685l32.8265381,18.9522095L51.8988953,50l0.0002441,0.0001221L19.0729675,68.9528198  C15.891449,63.3530273,14.0644226,56.8876343,14.0644226,50C14.0644226,43.1124878,15.8913269,36.6473389,19.0726013,31.0476685z   M52.3988953,50.8653564v37.6304321c-13.9156494-0.0592041-26.1104736-7.5371704-32.8273315-18.6769409L52.3988953,50.8653564z   M53.3988953,50.8660278l32.3371582,18.6696167C78.9689026,80.9978027,66.66922,88.1808472,53.3988953,88.4720459V50.8660278z   M86.6017761,29.9640503C79.5148621,17.9532471,66.5094299,10.5,52.5644226,10.5c-21.7802734,0-39.5,17.7197266-39.5,39.5  s17.7197266,39.5,39.5,39.5c13.9448242,0,26.9501343-7.453125,34.0371094-19.4646606l3.2897339,1.899292l-0.0177612,0.0302124  C82.1488953,84.9394531,67.9809265,93,52.8993835,93c-23.7104492,0-43-19.2900391-43-43c0-23.7104492,19.2895508-43,43-43  c15.0874023,0,29.2583008,8.0644531,36.9819336,21.0488281l0.0095215,0.0162964L86.6017761,29.9640503z"></path><path xmlns="http://www.w3.org/2000/svg" d="M75.2110901,25.354187c-2.1523438-1.2426758-4.90448-0.505249-6.1471558,1.6470947  c-1.2426147,2.1522827-0.505188,4.90448,1.6471558,6.1470947c2.1522827,1.2426758,4.90448,0.505188,6.1470947-1.6470947  C78.1007996,29.348938,77.3633728,26.5968018,75.2110901,25.354187z"></path><path xmlns="http://www.w3.org/2000/svg" d="M62.6488953,33.1124878c-2.1523438-1.2426147-4.90448-0.505188-6.1470947,1.6470947  c-1.2426758,2.1523438-0.505249,4.90448,1.6470947,6.1471558c2.1523438,1.2426147,4.90448,0.505188,6.1470947-1.6471558  C65.5386658,37.1072998,64.801239,34.3551025,62.6488953,33.1124878z"></path><path xmlns="http://www.w3.org/2000/svg" d="M63.0867004,18.354187c-2.1522827-1.2426758-4.90448-0.505249-6.1470947,1.6470947  c-1.2426147,2.1522827-0.505188,4.90448,1.6470947,6.1470947c2.1523438,1.2426758,4.90448,0.505188,6.1471558-1.6470947  C65.9764709,22.348938,65.2390442,19.5968018,63.0867004,18.354187z"></path><path xmlns="http://www.w3.org/2000/svg" d="M47.2110901,26.1483765c2.1522827-1.2426147,2.8897095-3.994812,1.6470947-6.1470947  c-1.2426147-2.1523438-3.994812-2.8897705-6.1470947-1.6470947c-2.1523438,1.2426147-2.8897705,3.994751-1.6471558,6.1470947  C42.3066101,26.6535645,45.0587463,27.3910522,47.2110901,26.1483765z"></path><path xmlns="http://www.w3.org/2000/svg" d="M43.1488953,33.1124878c-2.1523438,1.2426147-2.8897705,3.994812-1.6470947,6.1470947  c1.2426147,2.1523438,3.994751,2.8897705,6.1470947,1.6471558c2.1523438-1.2426758,2.8897705-3.994812,1.6470947-6.1471558  C48.0533752,32.6072998,45.301239,31.869873,43.1488953,33.1124878z"></path><path xmlns="http://www.w3.org/2000/svg" d="M35.0867004,33.1483765c2.1523438-1.2426147,2.8897705-3.994812,1.6471558-6.1470947  c-1.2426758-2.1523438-3.994812-2.8897705-6.1471558-1.6470947c-2.1522827,1.2426147-2.8897095,3.994751-1.6470947,6.1470947  C30.1822205,33.6535645,32.9344177,34.3910522,35.0867004,33.1483765z"></path><path xmlns="http://www.w3.org/2000/svg" d="M58.5867004,73.8515625c-2.1522827,1.2426758-2.8897095,3.994812-1.6470947,6.1471558  c1.2426147,2.1522827,3.994812,2.8897095,6.1470947,1.6470947c2.1523438-1.2426147,2.8897705-3.994812,1.6471558-6.1470947  C63.4911804,73.3463745,60.7390442,72.6089478,58.5867004,73.8515625z"></path><ellipse xmlns="http://www.w3.org/2000/svg" transform="matrix(0.2588169 -0.9659264 0.9659264 0.2588169 -16.0774097 105.0282745)" cx="60.3988953" cy="62.9903564" rx="4.4999695" ry="4.4999967"></ellipse><path xmlns="http://www.w3.org/2000/svg" d="M70.7110901,66.8515625c-2.1523438,1.2426758-2.8897705,3.994812-1.6471558,6.1471558  c1.2426758,2.1522827,3.994812,2.8897095,6.1471558,1.6470947c2.1522827-1.2426147,2.8897095-3.994812,1.6470947-6.1470947  C75.6155701,66.3463745,72.8633728,65.6089478,70.7110901,66.8515625z"></path><path xmlns="http://www.w3.org/2000/svg" d="M30.5867004,74.645813c2.1523438,1.2426147,4.90448,0.505188,6.1471558-1.6470947  c1.2426147-2.1523438,0.505188-4.90448-1.6471558-6.1471558c-2.1522827-1.2426147-4.90448-0.505188-6.1470947,1.6471558  C27.696991,70.651001,28.4344177,73.4031982,30.5867004,74.645813z"></path><ellipse xmlns="http://www.w3.org/2000/svg" transform="matrix(0.9659264 -0.2588169 0.2588169 0.9659264 -14.7560673 13.8963118)" cx="45.3988953" cy="62.9903564" rx="4.4999967" ry="4.4999695"></ellipse><path xmlns="http://www.w3.org/2000/svg" d="M42.7110901,81.645813c2.1522827,1.2426147,4.90448,0.505188,6.1470947-1.6470947  c1.2426147-2.1523438,0.505188-4.90448-1.6470947-6.1471558c-2.1523438-1.2426147-4.90448-0.505188-6.1471558,1.6471558  C39.8213196,77.651001,40.5587463,80.4031982,42.7110901,81.645813z"></path><circle xmlns="http://www.w3.org/2000/svg" cx="24.8988953" cy="43" r="4.5"></circle><circle xmlns="http://www.w3.org/2000/svg" cx="37.8988953" cy="50" r="4.5"></circle><circle xmlns="http://www.w3.org/2000/svg" cx="24.8988953" cy="57" r="4.5"></circle></g><g id="SvgjsG4717" featurekey="PXhRQw-0" transform="matrix(3.301839953273333,0,0,3.301839953273333,123.018896342924,-7.160113445243411)" fill="#e4b95b"><path d="M0.6 5.5 l2.98 0 l0 11.8 l2.92 0 l-0.5 2.7 l-5.4 0 l0 -14.5 z M10.58 8.04 c-0.17334 0 -0.26 0.09334 -0.26 0.28 l0 8.84 c0 0.10666 0.01666 0.18332 0.05 0.22998 s0.11 0.07 0.23 0.07 l1.1 0 c0.12 0 0.19666 -0.02334 0.23 -0.07 s0.05 -0.12332 0.05 -0.22998 l0 -8.84 c0 -0.18666 -0.08666 -0.28 -0.26 -0.28 l-1.14 0 z M14.919999999999998 17.94 c0 0.28 -0.03334 0.54334 -0.1 0.79 s-0.18 0.46332 -0.34 0.64998 s-0.37334 0.33666 -0.64 0.45 s-0.6 0.17 -1 0.17 l-3.36 0 c-0.4 0 -0.73334 -0.05666 -1 -0.17 s-0.48 -0.26334 -0.64 -0.45 s-0.27334 -0.40332 -0.34 -0.64998 s-0.1 -0.51 -0.1 -0.79 l0 -10.56 c0 -0.57334 0.15666 -1.03 0.47 -1.37 s0.81 -0.51 1.49 -0.51 l3.6 0 c0.68 0 1.1767 0.17 1.49 0.51 s0.47 0.79666 0.47 1.37 l0 10.56 z M16.84 20 l-0.51996 -2.7 l3.12 0 c0.22666 0 0.34 -0.1 0.34 -0.3 l0 -2.64 c0 -0.2 -0.04 -0.32 -0.12 -0.36 s-0.22 -0.06 -0.42 -0.06 l-1.5 0 c-0.21334 0 -0.41668 -0.01666 -0.61002 -0.05 s-0.36668 -0.11 -0.52002 -0.23 s-0.27334 -0.28666 -0.36 -0.5 s-0.13 -0.5 -0.13 -0.86 l0 -4.92 c0 -0.57334 0.15666 -1.03 0.47 -1.37 s0.81 -0.51 1.49 -0.51 l4 0 l0.5 2.7 l-3.28 0 c-0.24 0 -0.36 0.10666 -0.36 0.32 l0 2.64 c0 0.14666 0.03666 0.24666 0.11 0.3 s0.18334 0.08 0.33 0.08 l1.82 0 c0.46666 0 0.82332 0.11 1.07 0.33 s0.37 0.60334 0.37 1.15 l0 4.78 c0 0.8 -0.16334 1.3667 -0.49 1.7 s-0.90332 0.5 -1.73 0.5 l-3.58 0 z M29.119999999999997 18.2 l-0.26 1.8 l-2.92 0 l2.62 -14.5 l3.1 0 l2.62 14.5 l-2.92 0 l-0.26 -1.8 l-1.98 0 z M29.439999999999998 15.9 l1.34 0 l-0.66 -5.14 z M35.08 5.5 l2.98 0 l0 11.8 l2.92 0 l-0.5 2.7 l-5.4 0 l0 -14.5 z M44.76 18.2 l-0.26 1.8 l-2.92 0 l2.62 -14.5 l3.1 0 l2.62 14.5 l-2.92 0 l-0.26 -1.8 l-1.98 0 z M45.08 15.9 l1.34 0 l-0.66 -5.14 z M53.54 13.16 l0 6.84 l-2.82 0 l0 -14.5 l3.06 0 l1.58 6.12 l1.58 -6.12 l3.08 0 l0 14.5 l-2.82 0 l0 -6.84 l-1.84 5.8 z M64.39999999999999 8.04 c-0.17334 0 -0.26 0.09334 -0.26 0.28 l0 8.84 c0 0.10666 0.01666 0.18332 0.05 0.22998 s0.11 0.07 0.23 0.07 l1.1 0 c0.12 0 0.19666 -0.02334 0.23 -0.07 s0.05 -0.12332 0.05 -0.22998 l0 -8.84 c0 -0.18666 -0.08666 -0.28 -0.26 -0.28 l-1.14 0 z M68.74 17.94 c0 0.28 -0.03334 0.54334 -0.1 0.79 s-0.18 0.46332 -0.34 0.64998 s-0.37334 0.33666 -0.64 0.45 s-0.6 0.17 -1 0.17 l-3.36 0 c-0.4 0 -0.73334 -0.05666 -1 -0.17 s-0.48 -0.26334 -0.64 -0.45 s-0.27334 -0.40332 -0.34 -0.64998 s-0.1 -0.51 -0.1 -0.79 l0 -10.56 c0 -0.57334 0.15666 -1.03 0.47 -1.37 s0.81 -0.51 1.49 -0.51 l3.6 0 c0.68 0 1.1767 0.17 1.49 0.51 s0.47 0.79666 0.47 1.37 l0 10.56 z M70.66 20 l-0.51996 -2.7 l3.12 0 c0.22666 0 0.34 -0.1 0.34 -0.3 l0 -2.64 c0 -0.2 -0.04 -0.32 -0.12 -0.36 s-0.22 -0.06 -0.42 -0.06 l-1.5 0 c-0.21334 0 -0.41668 -0.01666 -0.61002 -0.05 s-0.36668 -0.11 -0.52002 -0.23 s-0.27334 -0.28666 -0.36 -0.5 s-0.13 -0.5 -0.13 -0.86 l0 -4.92 c0 -0.57334 0.15666 -1.03 0.47 -1.37 s0.81 -0.51 1.49 -0.51 l4 0 l0.5 2.7 l-3.28 0 c-0.24 0 -0.36 0.10666 -0.36 0.32 l0 2.64 c0 0.14666 0.03666 0.24666 0.11 0.3 s0.18334 0.08 0.33 0.08 l1.82 0 c0.46666 0 0.82332 0.11 1.07 0.33 s0.37 0.60334 0.37 1.15 l0 4.78 c0 0.8 -0.16334 1.3667 -0.49 1.7 s-0.90332 0.5 -1.73 0.5 l-3.58 0 z"></path></g><g id="SvgjsG4718" featurekey="mlRtrp-0" transform="matrix(1.4546609891838795,0,0,1.4546609891838795,126.9925673216353,66.7016357480713)" fill="#ffffff"><path d="M7.84 5.720000000000001 c1.52 0 2.72 0.41334 3.6 1.24 s1.32 1.94 1.32 3.34 c0 1.4133 -0.44 2.53 -1.32 3.35 s-2.0734 1.23 -3.58 1.23 l-3.34 0 l0 5.12 l-3.14 0 l0 -14.28 l6.46 0 z M7.02 12.440000000000001 c0.90666 0 1.5833 -0.16666 2.03 -0.5 s0.67 -0.88 0.67 -1.64 c0 -0.73334 -0.21666 -1.2733 -0.65 -1.62 s-1.11 -0.52 -2.03 -0.52 l-2.52 0 l0 4.28 l2.5 0 z M28.732 5.720000000000001 l0 14.28 l-3.14 0 l0 -14.28 l3.14 0 z M53.28399999999999 5.720000000000001 l0 2.48 l-7.66 9.16 l7.86 0 l0 2.64 l-12.04 0 l0 -2.48 l7.66 -9.16 l-7.06 0 l0 -2.64 l11.24 0 z M77.116 5.720000000000001 l0 2.48 l-7.66 9.16 l7.86 0 l0 2.64 l-12.04 0 l0 -2.48 l7.66 -9.16 l-7.06 0 l0 -2.64 l11.24 0 z M100.708 5.720000000000001 l0 2.64 l-7.54 0 l0 3.06 l6.92 0 l0 2.44 l-6.92 0 l0 3.5 l7.7 0 l0 2.64 l-10.84 0 l0 -14.28 l10.68 0 z M121.55999999999999 5.720000000000001 c1.2 0 2.1968 0.37 2.99 1.11 s1.19 1.6833 1.19 2.83 c0 1.7867 -0.75334 2.98 -2.26 3.58 l0 0.04 c0.50666 0.14666 0.90332 0.39 1.19 0.73 s0.50332 0.73666 0.64998 1.19 s0.24 1.18 0.28 2.18 c0.05334 1.3067 0.24 2.18 0.56 2.62 l-3.14 0 c-0.17334 -0.44 -0.30668 -1.2667 -0.40002 -2.48 c-0.10666 -1.28 -0.34 -2.1166 -0.7 -2.51 s-0.94666 -0.59 -1.76 -0.59 l-3.16 0 l0 5.58 l-3.14 0 l0 -14.28 l7.7 0 z M120.46 12.18 c0.66666 0 1.19 -0.15 1.57 -0.45 s0.57 -0.83 0.57 -1.59 c0 -0.72 -0.18666 -1.23 -0.56 -1.53 s-0.90668 -0.45 -1.6 -0.45 l-3.44 0 l0 4.02 l3.46 0 z M142.31199999999998 5.720000000000001 l0 14.28 l-3.14 0 l0 -14.28 l3.14 0 z M144.35199999999998 1.5799999999999983 l-3.08 2.84 l-1.98 0 l1.92 -2.84 l3.14 0 z M163.06399999999996 5.720000000000001 l5.34 14.28 l-3.26 0 l-1.08 -3.18 l-5.34 0 l-1.12 3.18 l-3.18 0 l5.42 -14.28 l3.22 0 z M161.40399999999997 9.24 l-1.86 5.24 l3.7 0 l-1.8 -5.24 l-0.04 0 z"></path></g></svg>