<svg width="320" height="100" viewBox="0 0 320 320" class="css-1j8o68f" style="width: 120px;height: 120px;"><defs id="SvgjsDefs13217"><linearGradient id="SvgjsLinearGradient13226"><stop id="SvgjsStop13227" stop-color="#fbb040" offset="0"></stop><stop id="SvgjsStop13228" stop-color="#f9ed32" offset="1"></stop></linearGradient></defs><g id="SvgjsG13218" featurekey="rootContainer" transform="matrix(6.4,0,0,6.4,0.3199958801269531,0)" fill="#383848"><path xmlns="http://www.w3.org/2000/svg" d="M24.95 0a25 25 0 1 0 25 25 25 25 0 0 0-25-25zm0 46.91a22 22 0 1 1 22-22 22 22 0 0 1-22 21.99z"></path><path stroke="#e4b95b" stroke-width="1.7" xmlns="http://www.w3.org/2000/svg" d="M24.95 3.65a21.3 21.3 0 1 0 21.3 21.3 21.33 21.33 0 0 0-21.3-21.3z"></path></g><g id="SvgjsG13219" featurekey="symbolFeature-0" transform="matrix(1.0962748301581968,0,0,1.0962748301581968,105.34010464593632,55.518625849209016)" fill="url(#SvgjsLinearGradient13226)"><path xmlns="http://www.w3.org/2000/svg" d="M84.5853577,18.0820312c-0.2271729-0.2255249-0.4630737-0.4419556-0.6949463-0.6625977  c-0.456543-0.432251-0.9179688-0.8587646-1.3914185-1.2709961c-0.1588745-0.1390991-0.3179321-0.2779541-0.4787598-0.414856  c-6.5284424-5.5255737-14.5581665-9.1533203-23.1134644-10.3206787c-0.114502-0.0153198-0.2294312-0.0294189-0.3442383-0.0438843  c-0.7716675-0.0991821-1.5484009-0.1734619-2.3276367-0.2322388c-0.1998901-0.0147705-0.3986206-0.0336304-0.5992432-0.0457153  c-0.9078369-0.0560913-1.8192139-0.0909424-2.7346802-0.0910034C52.9003601,5.000061,52.8997498,5,52.8991394,5  C28.0862122,5.0001221,7.8993835,25.1870728,7.8993835,50c0,24.8134155,20.1868286,44.9998779,44.9997559,45  c0.0006104,0,0.0012207-0.000061,0.0018311-0.000061c0.9152832-0.000061,1.8264771-0.0348511,2.7341919-0.0909424  c0.2000122-0.012085,0.3981934-0.0309448,0.5975342-0.0455933c0.7799683-0.0587769,1.557251-0.1330566,2.3297119-0.2324219  c0.1135254-0.0143433,0.2272339-0.0281982,0.3405151-0.043396c8.5605469-1.1676025,16.5961914-4.7987671,23.1279297-10.3302612  c0.147522-0.1256104,0.293335-0.2531128,0.439209-0.3805542c0.489502-0.425415,0.9663696-0.8658447,1.4378662-1.3126831  c0.22052-0.210083,0.4450073-0.4160156,0.6612549-0.6304932c0.4264526-0.4208374,0.8379517-0.8577271,1.2481079-1.2961426  c0.475769-0.5107422,0.9389038-1.0328979,1.3908081-1.5653076c0.178894-0.210083,0.3592529-0.4187012,0.5344849-0.6323853  c0.3652954-0.4467163,0.7220459-0.9006348,1.0703125-1.3613892c0.1177368-0.1554565,0.2321167-0.3137817,0.3479004-0.4709473  c1.0687866-1.4526367,2.0484619-2.9733887,2.9396973-4.5512085L53.8988953,50l38.2017212-22.0558472  c-0.8926392-1.5802612-1.8739624-3.1035156-2.9447021-4.5582886c-0.1118164-0.1516113-0.2220459-0.3045654-0.3355713-0.4546509  c-0.3515625-0.4653931-0.7120361-0.9237061-1.0809937-1.3748169c-0.1665649-0.203064-0.3378296-0.4013062-0.5076904-0.6011353   M53.3988953,11.5279541c13.2709351,0.2911377,25.5697632,7.4741211,32.3369751,18.9360352L53.3988953,49.1339722V11.5279541z   M52.3988953,49.1339111l-32.8273315-18.953064c6.7168579-11.1397095,18.9116821-18.6174316,32.8273315-18.6766357V49.1339111z   M19.0726013,31.0476685l32.8265381,18.9522095L51.8988953,50l0.0002441,0.0001221L19.0729675,68.9528198  C15.891449,63.3530273,14.0644226,56.8876343,14.0644226,50C14.0644226,43.1124878,15.8913269,36.6473389,19.0726013,31.0476685z   M52.3988953,50.8653564v37.6304321c-13.9156494-0.0592041-26.1104736-7.5371704-32.8273315-18.6769409L52.3988953,50.8653564z   M53.3988953,50.8660278l32.3371582,18.6696167C78.9689026,80.9978027,66.66922,88.1808472,53.3988953,88.4720459V50.8660278z   M86.6017761,29.9640503C79.5148621,17.9532471,66.5094299,10.5,52.5644226,10.5c-21.7802734,0-39.5,17.7197266-39.5,39.5  s17.7197266,39.5,39.5,39.5c13.9448242,0,26.9501343-7.453125,34.0371094-19.4646606l3.2897339,1.899292l-0.0177612,0.0302124  C82.1488953,84.9394531,67.9809265,93,52.8993835,93c-23.7104492,0-43-19.2900391-43-43c0-23.7104492,19.2895508-43,43-43  c15.0874023,0,29.2583008,8.0644531,36.9819336,21.0488281l0.0095215,0.0162964L86.6017761,29.9640503z"></path><path xmlns="http://www.w3.org/2000/svg" d="M75.2110901,25.354187c-2.1523438-1.2426758-4.90448-0.505249-6.1471558,1.6470947  c-1.2426147,2.1522827-0.505188,4.90448,1.6471558,6.1470947c2.1522827,1.2426758,4.90448,0.505188,6.1470947-1.6470947  C78.1007996,29.348938,77.3633728,26.5968018,75.2110901,25.354187z"></path><path xmlns="http://www.w3.org/2000/svg" d="M62.6488953,33.1124878c-2.1523438-1.2426147-4.90448-0.505188-6.1470947,1.6470947  c-1.2426758,2.1523438-0.505249,4.90448,1.6470947,6.1471558c2.1523438,1.2426147,4.90448,0.505188,6.1470947-1.6471558  C65.5386658,37.1072998,64.801239,34.3551025,62.6488953,33.1124878z"></path><path xmlns="http://www.w3.org/2000/svg" d="M63.0867004,18.354187c-2.1522827-1.2426758-4.90448-0.505249-6.1470947,1.6470947  c-1.2426147,2.1522827-0.505188,4.90448,1.6470947,6.1470947c2.1523438,1.2426758,4.90448,0.505188,6.1471558-1.6470947  C65.9764709,22.348938,65.2390442,19.5968018,63.0867004,18.354187z"></path><path xmlns="http://www.w3.org/2000/svg" d="M47.2110901,26.1483765c2.1522827-1.2426147,2.8897095-3.994812,1.6470947-6.1470947  c-1.2426147-2.1523438-3.994812-2.8897705-6.1470947-1.6470947c-2.1523438,1.2426147-2.8897705,3.994751-1.6471558,6.1470947  C42.3066101,26.6535645,45.0587463,27.3910522,47.2110901,26.1483765z"></path><path xmlns="http://www.w3.org/2000/svg" d="M43.1488953,33.1124878c-2.1523438,1.2426147-2.8897705,3.994812-1.6470947,6.1470947  c1.2426147,2.1523438,3.994751,2.8897705,6.1470947,1.6471558c2.1523438-1.2426758,2.8897705-3.994812,1.6470947-6.1471558  C48.0533752,32.6072998,45.301239,31.869873,43.1488953,33.1124878z"></path><path xmlns="http://www.w3.org/2000/svg" d="M35.0867004,33.1483765c2.1523438-1.2426147,2.8897705-3.994812,1.6471558-6.1470947  c-1.2426758-2.1523438-3.994812-2.8897705-6.1471558-1.6470947c-2.1522827,1.2426147-2.8897095,3.994751-1.6470947,6.1470947  C30.1822205,33.6535645,32.9344177,34.3910522,35.0867004,33.1483765z"></path><path xmlns="http://www.w3.org/2000/svg" d="M58.5867004,73.8515625c-2.1522827,1.2426758-2.8897095,3.994812-1.6470947,6.1471558  c1.2426147,2.1522827,3.994812,2.8897095,6.1470947,1.6470947c2.1523438-1.2426147,2.8897705-3.994812,1.6471558-6.1470947  C63.4911804,73.3463745,60.7390442,72.6089478,58.5867004,73.8515625z"></path><ellipse xmlns="http://www.w3.org/2000/svg" transform="matrix(0.2588169 -0.9659264 0.9659264 0.2588169 -16.0774097 105.0282745)" cx="60.3988953" cy="62.9903564" rx="4.4999695" ry="4.4999967"></ellipse><path xmlns="http://www.w3.org/2000/svg" d="M70.7110901,66.8515625c-2.1523438,1.2426758-2.8897705,3.994812-1.6471558,6.1471558  c1.2426758,2.1522827,3.994812,2.8897095,6.1471558,1.6470947c2.1522827-1.2426147,2.8897095-3.994812,1.6470947-6.1470947  C75.6155701,66.3463745,72.8633728,65.6089478,70.7110901,66.8515625z"></path><path xmlns="http://www.w3.org/2000/svg" d="M30.5867004,74.645813c2.1523438,1.2426147,4.90448,0.505188,6.1471558-1.6470947  c1.2426147-2.1523438,0.505188-4.90448-1.6471558-6.1471558c-2.1522827-1.2426147-4.90448-0.505188-6.1470947,1.6471558  C27.696991,70.651001,28.4344177,73.4031982,30.5867004,74.645813z"></path><ellipse xmlns="http://www.w3.org/2000/svg" transform="matrix(0.9659264 -0.2588169 0.2588169 0.9659264 -14.7560673 13.8963118)" cx="45.3988953" cy="62.9903564" rx="4.4999967" ry="4.4999695"></ellipse><path xmlns="http://www.w3.org/2000/svg" d="M42.7110901,81.645813c2.1522827,1.2426147,4.90448,0.505188,6.1470947-1.6470947  c1.2426147-2.1523438,0.505188-4.90448-1.6470947-6.1471558c-2.1523438-1.2426147-4.90448-0.505188-6.1471558,1.6471558  C39.8213196,77.651001,40.5587463,80.4031982,42.7110901,81.645813z"></path><circle xmlns="http://www.w3.org/2000/svg" cx="24.8988953" cy="43" r="4.5"></circle><circle xmlns="http://www.w3.org/2000/svg" cx="37.8988953" cy="50" r="4.5"></circle><circle xmlns="http://www.w3.org/2000/svg" cx="24.8988953" cy="57" r="4.5"></circle></g><g id="SvgjsG13220" featurekey="nameFeature-0" transform="matrix(1.562048625246573,0,0,1.562048625246573,60,163.192353455451)" fill="#e4b95b"><path d="M3.76 36.24 l5.52 0 l0 3.76 l-9.28 0 l0 -28.72 l3.76 0 l0 24.96 z M16.253 40.04 c-3 0 -5.4 -2.44 -5.4 -5.4 l0 -17.96 c0 -2.96 2.4 -5.36 5.4 -5.36 c2.96 0 5.36 2.4 5.36 5.36 l0 17.96 c0 2.96 -2.4 5.4 -5.36 5.4 z M16.253 15.120000000000001 c-0.88 0 -1.56 0.72 -1.56 1.56 l0 17.96 c0 0.88 0.68 1.56 1.56 1.56 c0.84 0 1.56 -0.68 1.56 -1.56 l0 -17.96 c0 -0.84 -0.72 -1.56 -1.56 -1.56 z M28.666 40.24 c-3.04 0 -5.48 -2.48 -5.48 -5.48 l0 -4.36 l3.88 0 l0 4.36 c0 0.88 0.72 1.6 1.6 1.6 s1.56 -0.72 1.56 -1.6 l0 -3.8 l-7.04 -9.72 l0 -4.96 c0 -3.04 2.44 -5.52 5.48 -5.52 c3 0 5.44 2.48 5.44 5.52 l0 4.32 l-3.88 0 l0 -4.32 c0 -0.92 -0.68 -1.6 -1.56 -1.6 s-1.6 0.68 -1.6 1.6 l0 3.64 l7.04 9.72 l0 5.12 c0 3 -2.44 5.48 -5.44 5.48 z M53.892 40 l-1.44 -9.88 l-4.04 0 l-1.32 9.88 l-3.84 0 l4.32 -28.6 l5.16 0 l5 28.6 l-3.84 0 z M48.932 26.32 l2.96 0 l-1.52 -10.4 z M63.065000000000005 36.24 l5.52 0 l0 3.76 l-9.28 0 l0 -28.72 l3.76 0 l0 24.96 z M80.158 40 l-1.44 -9.88 l-4.04 0 l-1.32 9.88 l-3.84 0 l4.32 -28.6 l5.16 0 l5 28.6 l-3.84 0 z M75.19800000000001 26.32 l2.96 0 l-1.52 -10.4 z M96.53099999999999 11.36 l6.68 0 l0 28.56 l-3.76 0 l0 -22.6 l-3.56 22.68 l-1.48 0 l-0.36 -0.08 l-0.32 0.08 l-1.48 0 l-3.52 -22.68 l0 22.6 l-3.8 0 l0 -28.56 l6.72 0 l2.44 16.16 z M110.184 40.04 c-3 0 -5.4 -2.44 -5.4 -5.4 l0 -17.96 c0 -2.96 2.4 -5.36 5.4 -5.36 c2.96 0 5.36 2.4 5.36 5.36 l0 17.96 c0 2.96 -2.4 5.4 -5.36 5.4 z M110.184 15.120000000000001 c-0.88 0 -1.56 0.72 -1.56 1.56 l0 17.96 c0 0.88 0.68 1.56 1.56 1.56 c0.84 0 1.56 -0.68 1.56 -1.56 l0 -17.96 c0 -0.84 -0.72 -1.56 -1.56 -1.56 z M122.597 40.24 c-3.04 0 -5.48 -2.48 -5.48 -5.48 l0 -4.36 l3.88 0 l0 4.36 c0 0.88 0.72 1.6 1.6 1.6 s1.56 -0.72 1.56 -1.6 l0 -3.8 l-7.04 -9.72 l0 -4.96 c0 -3.04 2.44 -5.52 5.48 -5.52 c3 0 5.44 2.48 5.44 5.52 l0 4.32 l-3.88 0 l0 -4.32 c0 -0.92 -0.68 -1.6 -1.56 -1.6 s-1.6 0.68 -1.6 1.6 l0 3.64 l7.04 9.72 l0 5.12 c0 3 -2.44 5.48 -5.44 5.48 z"></path></g><g id="SvgjsG13221" featurekey="sloganFeature-0" transform="matrix(0.9283624239869268,0,0,0.9283624239869268,98.25746520827738,240.13515833988143)" fill="#f1f0ee"><path d="M12.56 10.24 c0 3.58 -3.36 5.04 -7.76 4.38 l0 2.92 c0 1.4 0.94 1.64 2.26 1.8 c0.14 0.02 0.04 0.66 -0.12 0.66 l-5.94 0 c-0.16 0 -0.28 -0.64 -0.12 -0.66 c1 -0.14 1.68 -0.52 1.68 -1.8 l0 -8.98 c0 -1.32 -0.72 -1.7 -1.68 -1.96 c-0.16 -0.04 -0.06 -0.66 0.12 -0.64 c0.78 0.1 1.68 0.12 2.3 0.12 c1.42 0 2.64 -0.12 3.66 -0.12 c3.04 0 5.6 1.14 5.6 4.28 z M6.5 6.960000000000001 c-1.32 0 -1.7 0.46 -1.7 1.6 l0 5.1 c3.46 0.5 5.34 -0.28 5.34 -2.96 c0 -2.5 -1.62 -3.74 -3.64 -3.74 z M19.5595 20 c-0.16 0 -0.28 -0.64 -0.12 -0.66 c1 -0.14 1.68 -0.52 1.68 -1.8 l0 -9.1 c0 -1.26 -0.68 -1.66 -1.68 -1.8 c-0.16 -0.02 -0.04 -0.64 0.12 -0.64 l5.34 0 c0.16 0 0.28 0.62 0.12 0.64 c-0.86 0.12 -1.66 0.4 -1.66 1.8 l0 9.1 c0 1.4 0.8 1.68 1.66 1.8 c0.16 0.02 0.04 0.66 -0.12 0.66 l-5.34 0 z M41.199 20.12 c-1.1 -0.28 -3.16 -0.22 -5.12 -0.22 c-1.7 0 -3.22 0.04 -4.38 0.16 c-0.18 0.02 -0.38 -0.44 -0.28 -0.6 l8.22 -12.28 l-3.66 0 c-2.24 -0.02 -2.98 0.56 -3.5 1.2 c-0.22 0.26 -0.74 0.08 -0.62 -0.26 l0.72 -1.98 c0.12 -0.34 0.5 -0.32 0.74 -0.26 c1.1 0.28 3.08 0.22 4.86 0.22 c1.6 0 3.12 -0.04 4.28 -0.16 c0.18 -0.02 0.38 0.44 0.28 0.6 l-8.22 12.28 l4.02 0 c2.24 0.02 2.98 -0.56 3.5 -1.2 c0.22 -0.26 0.74 -0.08 0.62 0.26 l-0.72 1.98 c-0.12 0.34 -0.5 0.32 -0.74 0.26 z M58.9585 20.12 c-1.1 -0.28 -3.16 -0.22 -5.12 -0.22 c-1.7 0 -3.22 0.04 -4.38 0.16 c-0.18 0.02 -0.38 -0.44 -0.28 -0.6 l8.22 -12.28 l-3.66 0 c-2.24 -0.02 -2.98 0.56 -3.5 1.2 c-0.22 0.26 -0.74 0.08 -0.62 -0.26 l0.72 -1.98 c0.12 -0.34 0.5 -0.32 0.74 -0.26 c1.1 0.28 3.08 0.22 4.86 0.22 c1.6 0 3.12 -0.04 4.28 -0.16 c0.18 -0.02 0.38 0.44 0.28 0.6 l-8.22 12.28 l4.02 0 c2.24 0.02 2.98 -0.56 3.5 -1.2 c0.22 -0.26 0.74 -0.08 0.62 0.26 l-0.72 1.98 c-0.12 0.34 -0.5 0.32 -0.74 0.26 z M67.11800000000001 20.04 c-0.2 0.02 -0.28 -0.64 -0.12 -0.68 c1.16 -0.3 2.08 -0.48 2.08 -1.96 l0 -8.92 c0 -1.3 -0.84 -1.66 -1.7 -1.86 c-0.16 -0.04 -0.06 -0.68 0.1 -0.66 c1.48 0.14 3.82 0.12 5.16 0.12 c1.82 0 3.16 -0.08 4.76 -0.12 c0.48 0 0.48 0.32 0.38 0.78 l-0.48 1.88 c-0.06 0.28 -0.56 0.28 -0.64 0 c-0.3 -0.96 -0.9 -1.56 -3.42 -1.56 c-1.46 0 -1.92 0.36 -1.92 1.44 l0 3.28 c0 0.52 0.26 0.62 0.66 0.62 l0.42 0 c1.68 0 3.06 -0.14 3.9 -0.92 c0.2 -0.18 0.64 -0.14 0.46 0.24 l-1.16 2.52 c-0.14 0.34 -0.44 0.3 -0.66 0.02 c-0.46 -0.64 -1.5 -0.9 -2.7 -0.9 l-0.26 0 c-0.4 0 -0.66 0.1 -0.66 0.62 l0 3.42 c0 1.14 0.5 1.54 2.2 1.54 c3.12 0 4.24 -1.34 4.72 -2.14 c0.16 -0.24 0.66 -0.14 0.66 0.2 c0 1.06 -0.84 3.04 -2.08 3.04 c-1.06 -0.06 -2.24 -0.12 -3.92 -0.12 c-1.86 0 -3.94 -0.06 -5.78 0.12 z M99.9975 19.52 c0.16 0 0.12 0.52 0 0.56 c-1.2 0.44 -2.9 0.34 -4.06 -1.16 l-3.1 -3.98 c-0.84 -1.1 -1.92 -1.28 -3.34 -1.3 l0 3.9 c0 1.4 0.94 1.64 2.26 1.8 c0.14 0.02 0.04 0.66 -0.12 0.66 l-5.94 0 c-0.16 0 -0.28 -0.64 -0.12 -0.66 c1 -0.14 1.68 -0.52 1.68 -1.8 l0 -8.98 c0 -1.32 -0.72 -1.7 -1.68 -1.96 c-0.16 -0.04 -0.06 -0.66 0.12 -0.64 c0.78 0.1 1.68 0.12 2.3 0.12 c1.42 0 2.74 -0.12 3.68 -0.12 c2.96 0 5 1.22 5 3.7 c0 2.34 -1.92 3.48 -3.52 3.58 l0 0.1 c0.76 0 1.32 0.34 2.18 1.42 l3.02 3.78 c0.6 0.76 1.16 0.98 1.64 0.98 z M90.09750000000001 12.76 c3 0 4.22 -0.52 4.22 -2.58 c0 -2.14 -1.4 -3.22 -3.22 -3.22 c-1.18 0 -1.6 0.48 -1.6 1.6 l0 4.2 l0.6 0 z M107.37700000000001 3.6999999999999993 l1.84 -2.66 c0.36 -0.52 2.02 0.98 1.54 1.34 l-2.64 2 c-0.26 0.2 -0.94 -0.4 -0.74 -0.68 z M106.397 20 c-0.16 0 -0.28 -0.64 -0.12 -0.66 c1 -0.14 1.68 -0.52 1.68 -1.8 l0 -9.1 c0 -1.26 -0.68 -1.66 -1.68 -1.8 c-0.16 -0.02 -0.04 -0.64 0.12 -0.64 l5.34 0 c0.16 0 0.28 0.62 0.12 0.64 c-0.86 0.12 -1.66 0.4 -1.66 1.8 l0 9.1 c0 1.4 0.8 1.68 1.66 1.8 c0.16 0.02 0.04 0.66 -0.12 0.66 l-5.34 0 z M133.19650000000001 19.34 c0.28 0.04 0.2 0.66 -0.04 0.66 l-5.14 0 c-0.26 0 -0.28 -0.62 -0.06 -0.66 c0.76 -0.14 1.54 -0.42 0.8 -2.14 l-0.26 -0.6 c-0.2 -0.46 -0.58 -0.5 -1.2 -0.5 l-4.12 0 c-0.6 0 -0.98 0.04 -1.16 0.5 l-0.24 0.6 c-0.72 1.74 0.04 2 1.02 2.14 c0.24 0.04 0.2 0.66 -0.06 0.66 l-4.28 0 c-0.24 0 -0.3 -0.62 -0.06 -0.66 c0.82 -0.14 1.3 -0.44 2.06 -2.14 l3.38 -7.74 c0.78 -1.76 1.02 -2.6 1.02 -3.36 c0 -0.12 1.4 -0.44 1.46 -0.3 l4.88 11.38 c0.72 1.72 1.2 2.04 2 2.16 z M127.2365 15.04 c0.28 0 0.6 -0.04 0.48 -0.32 l-2.44 -5.82 l-2.46 5.82 c-0.12 0.28 0.2 0.32 0.48 0.32 l3.94 0 z"></path></g></svg>